<svg width="174" height="174" viewBox="0 0 174 174" fill="none" xmlns="http://www.w3.org/2000/svg">
<g id="arrow, hand drawn, scribble, doodle, swirl, reload, refresh, redo, 36">
<path id="Vector" d="M71.4228 121.151C69.0468 119.485 66.7524 117.677 64.6032 115.691C62.4557 113.702 60.4742 111.522 58.6944 109.175C56.809 106.684 55.2218 103.972 53.8393 101.185L53.4926 100.488L53.1742 99.7766C52.968 99.2999 52.7361 98.8339 52.554 98.3467L51.9794 96.8968L51.467 95.4229C50.8167 93.4461 50.2887 91.4264 49.9032 89.3744C49.5361 87.3192 49.3057 85.2372 49.2199 83.1439C49.1311 81.0499 49.2371 78.9463 49.4634 76.8613C50.4142 68.5261 53.8236 60.4371 59.3489 54.0128C61.0445 52.0309 62.9646 50.2511 65.0001 48.6386C67.0404 47.0298 69.219 45.5988 71.5136 44.4015C73.8025 43.194 76.1831 42.1727 78.6258 41.3431C81.0759 40.5369 83.5815 39.9171 86.1173 39.482C88.6522 39.0349 91.2238 38.8296 93.7935 38.7892C96.3635 38.7547 98.9277 38.8938 101.463 39.2402C103.999 39.5765 106.507 40.0769 108.973 40.7242C111.434 41.3897 113.849 42.2029 116.211 43.1415C119.06 44.2784 121.791 45.7544 124.342 47.3522C124.949 47.7425 125.492 48.115 125.969 48.4809C126.438 48.8582 126.847 49.2195 127.2 49.5644C127.555 49.9051 127.846 50.2435 128.086 50.5676C128.328 50.8896 128.52 51.194 128.67 51.4809C129.104 52.3167 128.826 52.6986 128.027 52.6332C127.627 52.6003 127.097 52.4554 126.457 52.1968C125.81 51.9481 125.044 51.6019 124.184 51.1411C121.988 50.0057 119.607 48.7642 117.307 47.6739C112.019 45.1612 106.348 43.4363 100.556 42.7565C97.6621 42.4167 94.7408 42.3349 91.8506 42.5454C88.9583 42.7554 86.0885 43.2513 83.3035 44.0244C80.2236 44.8776 77.1669 46.15 74.3512 47.4064C72.1013 48.4158 69.9483 49.6587 67.9429 51.1097C65.9265 52.5497 64.106 54.2483 62.4481 56.0829C59.1458 59.778 56.6267 64.159 54.89 68.8097C54.2569 70.5438 53.7307 72.322 53.3407 74.1332C52.9685 75.9476 52.7139 77.7863 52.5844 79.6349C52.4808 81.4841 52.4995 83.3396 52.6328 85.1893C52.7881 87.0377 53.0656 88.8743 53.4416 90.6911C54.8352 97.1606 57.7725 103.311 61.9579 108.456C64.0556 111.032 66.4726 113.355 69.071 115.47C71.6724 117.584 74.4624 119.485 77.3518 121.242C81.9706 124.034 86.4426 126.547 90.2284 129.225C91.9685 130.456 91.4786 131.154 89.195 130.256C85.9622 128.986 82.6131 127.517 79.3539 125.853C76.6733 124.486 74.0313 122.845 71.4773 121.12C71.4594 121.131 71.4427 121.141 71.4228 121.151Z" fill="white"/>
<path id="Vector_2" d="M83.8238 112.645C89.9514 120.892 97.1817 128.939 103.894 136.092C94.3118 133.724 84.2274 135.745 74.5968 137.997C78.2868 137.483 81.8456 135.937 85.303 134.536C87.8044 133.523 89.624 131.544 90.2369 129.254C90.8876 126.822 88.8177 122.484 87.6647 120.255C86.3501 117.714 85.0354 115.173 83.7207 112.632" fill="white"/>
<path id="Vector_3" d="M91.1008 122.987C91.3964 123.806 91.6641 124.648 91.8701 125.544C92.069 126.445 92.2314 127.391 92.162 128.506L92.1236 128.929C92.1076 129.071 92.0687 129.229 92.0389 129.378L91.9885 129.604L91.962 129.715L91.9323 129.807L91.8115 130.172C91.6342 130.651 91.4305 131.12 91.1774 131.555C90.6875 132.436 90.0478 133.206 89.337 133.874C88.5744 134.573 87.7211 135.156 86.8118 135.601C86.3674 135.828 85.859 136.023 85.492 136.17C85.0936 136.329 84.6957 136.493 84.2967 136.661C82.8205 137.283 81.3121 137.906 79.743 138.449C78.1751 138.992 76.5362 139.446 74.8278 139.717C73.8832 139.867 72.9999 139.221 72.8549 138.274C72.718 137.382 73.2873 136.54 74.1455 136.322L74.2105 136.306C77.1247 135.576 80.0666 134.871 83.059 134.297C86.0488 133.717 89.1005 133.296 92.1954 133.126L92.9526 133.084L93.7133 133.067C94.2208 133.061 94.7266 133.034 95.2364 133.052L96.7639 133.083L98.294 133.179C100.334 133.343 102.373 133.655 104.383 134.135L102.427 137.477C99.8923 134.782 97.3827 132.057 94.9174 129.284C92.4539 126.51 90.0296 123.694 87.6774 120.809C86.5884 119.482 85.6208 118.033 84.6908 116.608C83.8046 115.239 83.5556 114.106 83.6676 113.213C83.8345 111.911 85.1782 112.095 86.7301 113.747C87.7152 114.793 88.6836 116.019 89.5706 117.206C93.6588 122.673 98.2416 127.747 103.119 132.534C103.854 133.255 104.62 133.977 105.352 134.716C106.121 135.491 106.114 136.748 105.337 137.522C104.86 137.997 104.203 138.18 103.589 138.071L103.408 138.037C103.004 137.962 102.604 137.881 102.21 137.79C102.013 137.747 101.819 137.692 101.623 137.651C101.427 137.612 101.232 137.569 101.039 137.523C98.3297 136.867 95.4784 136.676 92.6262 136.807C89.7699 136.926 86.9093 137.307 84.0407 137.717C81.0089 138.159 77.9814 138.828 74.9442 139.518L74.3891 136.45C75.5521 136.289 76.7204 136.032 77.889 135.699C79.69 135.191 81.4861 134.514 83.3066 133.81L84.6791 133.279C84.8024 133.233 84.8852 133.196 84.9851 133.155C85.0812 133.115 85.1798 133.079 85.2724 133.031L85.555 132.897L85.8292 132.748C86.5565 132.343 87.2102 131.817 87.7519 131.203C88.2855 130.584 88.7106 129.877 88.9558 129.116C89.0333 128.909 89.0404 128.78 89.0835 128.621C89.0909 128.441 89.126 128.275 89.1116 128.072C89.1191 127.688 89.0506 127.258 88.9795 126.832C88.8137 125.97 88.5326 125.083 88.2073 124.208C87.8792 123.33 87.5018 122.458 87.0926 121.595C86.7689 120.911 86.4324 120.214 86.1272 119.52C85.8208 118.827 85.5367 118.138 85.2793 117.453C84.7645 116.082 84.3562 114.727 84.0886 113.39C83.8445 112.159 84.6254 111.84 85.4343 112.994C86.5807 114.627 87.6859 116.389 88.727 118.173C88.9412 118.54 89.148 118.913 89.3502 119.291C89.5562 119.678 89.7599 120.079 89.9532 120.485C90.3414 121.298 90.7018 122.136 91.0421 122.993C91.0612 122.991 91.079 122.989 91.1008 122.987Z" fill="white"/>
</g>
</svg>
