<svg width="31" height="31" viewBox="0 0 31 31" fill="none" xmlns="http://www.w3.org/2000/svg">
<path id="Vector" d="M15.4325 0.70459C17.3945 0.70459 19.2761 1.48399 20.6635 2.87132C22.0508 4.25865 22.8302 6.14028 22.8302 8.10227C22.8302 10.0643 22.0508 11.9459 20.6635 13.3332C19.2761 14.7206 17.3945 15.4999 15.4325 15.4999C13.4705 15.4999 11.5889 14.7206 10.2016 13.3332C8.81422 11.9459 8.03482 10.0643 8.03482 8.10227C8.03482 6.14028 8.81422 4.25865 10.2016 2.87132C11.5889 1.48399 13.4705 0.70459 15.4325 0.70459ZM15.4325 4.40343C14.4515 4.40343 13.5107 4.79313 12.817 5.48679C12.1234 6.18046 11.7337 7.12127 11.7337 8.10227C11.7337 9.08326 12.1234 10.0241 12.817 10.7177C13.5107 11.4114 14.4515 11.8011 15.4325 11.8011C16.4135 11.8011 17.3543 11.4114 18.048 10.7177C18.7416 10.0241 19.1313 9.08326 19.1313 8.10227C19.1313 7.12127 18.7416 6.18046 18.048 5.48679C17.3543 4.79313 16.4135 4.40343 15.4325 4.40343ZM15.4325 17.3494C20.3705 17.3494 30.2279 19.8091 30.2279 24.747V30.2953H0.637146V24.747C0.637146 19.8091 10.4946 17.3494 15.4325 17.3494ZM15.4325 20.8633C9.93973 20.8633 4.15104 23.5634 4.15104 24.747V26.7814H26.714V24.747C26.714 23.5634 20.9253 20.8633 15.4325 20.8633Z" fill="#6E4FFF"/>
</svg>
