<svg width="65" height="63" viewBox="0 0 65 63" fill="none" xmlns="http://www.w3.org/2000/svg">
<path id="Vector" d="M36.9482 32.8102C37.2415 33.2969 37.305 34.0104 37.1175 34.7178C36.8092 35.8727 35.9052 36.7011 35.1343 36.5227C34.7987 36.4441 34.5901 36.1992 34.4722 36.0087C34.1789 35.522 34.1154 34.8115 34.3029 34.1041C34.584 33.052 35.361 32.272 36.0776 32.272C36.1501 32.272 36.2197 32.278 36.2892 32.2962C36.6248 32.3718 36.8334 32.6167 36.9482 32.8102ZM41.4771 49.4959C41.5406 49.5564 41.6283 49.5594 41.6827 49.5413C41.7129 49.5322 41.7825 49.505 41.7976 49.4324L42.5111 46.2671C41.595 46.7901 40.6185 47.2527 39.5785 47.6488L41.4771 49.4959ZM47.8169 42.2431L49.6732 44.2717C49.7578 44.3624 49.8757 44.3261 49.8969 44.3201C49.9362 44.305 49.9997 44.2717 50.0027 44.1961L50.1599 39.897C49.4223 40.674 48.6453 41.4661 47.8169 42.2431ZM64.6443 35.4951C62.0745 44.6371 46.2597 56.2047 32.1172 56.2047H32.0567C17.9924 56.1714 2.87003 44.8793 0.360855 35.6584C-0.679189 31.843 0.539229 28.7775 3.88298 26.8005C7.5623 24.6237 10.2016 22.184 12.1906 19.1243C12.2239 19.073 12.239 19.0125 12.2481 18.955C12.3237 18.7978 12.2934 18.6074 12.1513 18.4925C9.84456 16.5879 8.52039 13.6885 8.52039 10.5416C8.52039 5.04226 12.632 0.567627 17.6871 0.567627C20.7286 0.567627 23.5644 2.20625 25.2756 4.9514C25.3693 5.10256 25.5477 5.16 25.7109 5.11163C27.6488 4.80024 29.883 4.65209 32.5465 4.65209C35.4186 4.65209 37.7919 4.81535 39.8054 5.15093C39.8265 5.15396 39.8477 5.15698 39.8689 5.15698C40.017 5.15698 40.15 5.06931 40.2135 4.93628C41.9247 2.20328 44.7575 0.573713 47.7899 0.573713C52.8447 0.573713 56.9566 5.04812 56.9566 10.5477C56.9566 13.6949 55.6325 16.5942 53.3257 18.4986C53.2471 18.5651 53.2017 18.6558 53.1896 18.7525C53.1503 18.7646 53.111 18.7767 53.0778 18.8009C52.9024 18.9218 52.8571 19.1637 52.978 19.339C54.928 22.187 57.6217 24.6297 61.2075 26.8065C64.4908 28.7958 65.6819 31.8009 64.6449 35.4957L64.6443 35.4951ZM39.9473 10.559C39.9473 15.0032 43.3092 18.619 47.439 18.619C51.5688 18.619 54.9307 15.0031 54.9307 10.559C54.9307 6.11474 51.5688 2.49897 47.439 2.49897C43.3062 2.49897 39.9473 6.11482 39.9473 10.559ZM16.3958 25.2881C16.2144 25.403 16.163 25.6419 16.2779 25.8233C16.3928 26.0047 16.6316 26.0561 16.81 25.9442C27.0587 19.4442 37.6589 19.4442 48.3155 25.9472C48.379 25.9865 48.4485 26.0047 48.518 26.0047C48.648 26.0047 48.775 25.9382 48.8476 25.8202C48.9594 25.6389 48.902 25.4 48.7206 25.2882C37.7885 18.6158 26.9108 18.6188 16.3958 25.2881ZM38.8251 32.6014C38.8583 32.7889 39.0216 32.9219 39.206 32.9219C39.2272 32.9219 39.2514 32.9189 39.2725 32.9158C39.4842 32.8796 39.6232 32.68 39.587 32.4684C39.2998 30.8117 38.3474 29.6417 37.0413 29.3423C35.8864 29.0763 34.6227 29.5418 33.5888 30.6181C33.4406 30.7723 33.4437 31.0172 33.6009 31.1653C33.7551 31.3135 34 31.3104 34.1481 31.1532C34.9885 30.2765 35.9862 29.8955 36.872 30.0951C37.8636 30.3279 38.5924 31.2621 38.8251 32.6014ZM37.6128 32.411C37.3346 31.9514 36.9356 31.6521 36.4609 31.5433C35.2606 31.2682 33.9818 32.3051 33.5585 33.9045C33.3137 34.8235 33.4074 35.7366 33.8125 36.4078C34.0906 36.8673 34.4867 37.1696 34.9644 37.2785C35.0944 37.3087 35.2244 37.3238 35.3574 37.3238C36.4337 37.3238 37.4888 36.3443 37.8697 34.9173C38.1086 33.9952 38.0179 33.0821 37.6128 32.411ZM43.5383 27.6825C43.6048 27.7249 43.6744 27.743 43.75 27.743C43.8769 27.743 44.0009 27.6795 44.0765 27.5677C44.1914 27.3893 44.14 27.1474 43.9616 27.0325C36.2493 22.0502 28.5761 22.0502 21.1538 27.0356C20.9785 27.1535 20.9301 27.3953 21.048 27.5737C21.169 27.7521 21.4078 27.7974 21.5862 27.6795C28.7241 22.8816 36.1138 22.8816 43.5383 27.6825ZM27.2519 34.9142C27.6299 36.3413 28.685 37.3208 29.7613 37.3208C29.8913 37.3208 30.0213 37.3057 30.1543 37.2754C30.629 37.1666 31.028 36.8673 31.3062 36.4047C31.7113 35.7336 31.805 34.8205 31.5601 33.9015C31.1339 32.3021 29.858 31.2652 28.6578 31.5403C28.1801 31.6491 27.7841 31.9484 27.5059 32.411C27.1008 33.0821 27.0071 33.9952 27.2519 34.9142ZM28.2466 30.1012C29.1355 29.8986 30.1271 30.2826 30.9706 31.1593C31.1187 31.3135 31.3636 31.3165 31.5178 31.1714C31.672 31.0233 31.675 30.7784 31.5299 30.6242C30.496 29.5479 29.2322 29.0823 28.0773 29.3484C26.7713 29.6477 25.8189 30.8147 25.5317 32.4745C25.4954 32.6861 25.6375 32.8857 25.8461 32.9219C25.8673 32.925 25.8915 32.928 25.9126 32.928C26.0971 32.928 26.2603 32.795 26.2936 32.6075C26.5234 31.2622 27.255 30.3279 28.2466 30.1012ZM17.6806 18.6156C21.8103 18.6156 25.1722 14.9998 25.1722 10.5556C25.1722 6.11444 21.8134 2.49874 17.6806 2.49874C13.5508 2.49874 10.1889 6.1146 10.1889 10.5587C10.1889 15.003 13.5508 18.6156 17.6806 18.6156ZM60.6956 32.423C60.6956 32.2084 60.5233 32.0361 60.3086 32.0361C56.5083 32.0361 53.7481 34.9656 50.5498 38.3577C46.1963 42.9773 41.2654 48.2102 32.0537 48.2102C22.5426 48.2102 17.3965 42.6081 13.2675 38.1062C10.4195 35.0013 7.95556 32.3196 4.80811 32.3196C4.59346 32.3196 4.42113 32.492 4.42113 32.7066C4.42113 32.9213 4.59346 33.0936 4.80811 33.0936C7.61371 33.0936 9.96886 35.6573 12.6955 38.6292C12.8195 38.7652 12.9495 38.9043 13.0734 39.0403C13.0402 39.1008 13.016 39.1643 13.019 39.2368L13.2004 44.2222C13.2125 44.5971 13.4483 44.9115 13.8111 45.0445C13.926 45.0869 14.0439 45.108 14.1588 45.108C14.4279 45.108 14.6878 44.9992 14.8753 44.7936L16.7346 42.762C17.8925 43.8201 19.1562 44.8299 20.5681 45.7217C20.5681 45.749 20.565 45.7762 20.5711 45.8034L21.4267 49.6006C21.4993 49.9271 21.7441 50.181 22.0797 50.2808C22.1734 50.308 22.2702 50.3231 22.3639 50.3231C22.6179 50.3231 22.8627 50.2264 23.0441 50.048L25.2209 47.9257C27.2314 48.5847 29.4837 48.9838 32.0565 48.9838C34.5719 48.9838 36.7879 48.5878 38.7682 47.9317L40.9389 50.048C41.1203 50.2264 41.3682 50.3231 41.6191 50.3231C41.7159 50.3231 41.8096 50.311 41.9033 50.2808C42.2359 50.181 42.4808 49.9271 42.5533 49.6006L43.4089 45.8034C43.415 45.7762 43.412 45.749 43.412 45.7217C44.8208 44.8299 46.0845 43.8171 47.2485 42.765L49.1047 44.7936C49.2922 44.9992 49.5522 45.108 49.8212 45.108C49.9361 45.108 50.054 45.0869 50.1689 45.0445C50.5317 44.9115 50.7675 44.5971 50.7796 44.2222L50.961 39.2368C50.964 39.1824 50.9519 39.128 50.9338 39.0796C50.9943 39.0162 51.0578 38.9496 51.1182 38.8862C54.1929 35.6241 56.8473 32.8063 60.3121 32.8063C60.5237 32.8094 60.696 32.637 60.696 32.4224L60.6956 32.423ZM22.1819 49.4323C22.2 49.5049 22.2696 49.5321 22.2968 49.5411C22.3542 49.5593 22.4419 49.5563 22.5024 49.4958L24.407 47.6395C23.3639 47.2465 22.3814 46.79 21.4684 46.27L22.1819 49.4323ZM13.8193 39.8453L13.9765 44.1988C13.9795 44.2744 14.043 44.3076 14.0823 44.3228C14.1035 44.3318 14.2214 44.3681 14.306 44.2744L16.1683 42.2397C15.337 41.4446 14.5601 40.6374 13.8193 39.8453ZM29.9819 36.5227C30.3174 36.4441 30.526 36.1992 30.6439 36.0087C30.9372 35.522 31.0007 34.8085 30.8133 34.1041C30.5351 33.052 29.7581 32.272 29.0416 32.272C28.969 32.272 28.8995 32.278 28.83 32.2962C28.4944 32.3748 28.2858 32.6197 28.1679 32.8101C27.8746 33.2969 27.8111 34.0104 27.9986 34.7148C28.3069 35.8697 29.2139 36.6981 29.9819 36.5227ZM12.68 50.9137C10.5879 54.3934 9.44211 58.3539 9.37562 62.4325H15.0685C15.1138 59.0857 16.0118 56.132 17.735 53.6411C15.9724 52.8399 14.2793 51.9203 12.68 50.9137ZM47.0515 53.3293C48.9199 55.8839 49.8904 58.9435 49.9387 62.4325H55.6346C55.5651 58.2121 54.3497 54.1187 52.1155 50.5538C50.5071 51.5697 48.8081 52.5069 47.0515 53.3293ZM46.335 53.6527C48.1671 56.0986 49.1194 59.0523 49.1647 62.4325H15.842C15.8873 59.1946 16.7641 56.3497 18.448 53.9646C22.7471 55.8239 27.412 56.9698 32.0527 56.9788H32.1131C36.8476 56.9788 41.7671 55.6965 46.335 53.6527ZM46.7038 56.9572C37.3041 61.0023 27.6296 61.0023 17.9466 56.9572C17.7532 56.8725 17.5234 56.9662 17.4418 57.1658C17.3601 57.3623 17.4539 57.589 17.6504 57.6737C22.5904 59.7386 27.5307 60.7695 32.4345 60.7695C37.3412 60.7695 42.2119 59.7356 47.0097 57.6707C47.2062 57.586 47.2969 57.3593 47.2122 57.1627C47.1276 56.9632 46.9003 56.8725 46.7038 56.9572ZM23.8024 11.4392C23.8024 14.5591 21.6407 17.0897 18.9712 17.0897C16.3047 17.0897 14.14 14.5592 14.14 11.4392C14.14 8.31911 16.3017 5.78866 18.9712 5.78866C21.6377 5.78866 23.8024 8.31911 23.8024 11.4392ZM22.1366 9.92755C22.1366 8.80291 21.2236 7.88988 20.0989 7.88988C18.9743 7.88988 18.0613 8.80291 18.0613 9.92755C18.0613 11.0522 18.9743 11.9652 20.0989 11.9652C21.2266 11.9652 22.1366 11.0522 22.1366 9.92755ZM46.0357 5.78866C48.7022 5.78866 50.8668 8.31911 50.8668 11.4392C50.8668 14.5592 48.7052 17.0897 46.0357 17.0897C43.3691 17.0897 41.2045 14.5592 41.2045 11.4392C41.2045 8.31911 43.3691 5.78866 46.0357 5.78866ZM44.905 11.9652C46.0296 11.9652 46.9426 11.0522 46.9426 9.92755C46.9426 8.80291 46.0296 7.88988 44.905 7.88988C43.7803 7.88988 42.8673 8.80291 42.8673 9.92755C42.8703 11.0522 43.7803 11.9652 44.905 11.9652Z" fill="#6E4FFF"/>
</svg>
